<?xml version="1.0" encoding="UTF-8" standalone="no"?>
<svg
   width="512"
   height="452.988"
   version="1.1"
   id="svg1"
   sodipodi:docname="loopmtn.svg"
   inkscape:export-filename="loopmtn.png"
   inkscape:export-xdpi="6"
   inkscape:export-ydpi="6"
   inkscape:version="1.3.2 (091e20ef0f, 2023-11-25, custom)"
   xmlns:inkscape="http://www.inkscape.org/namespaces/inkscape"
   xmlns:sodipodi="http://sodipodi.sourceforge.net/DTD/sodipodi-0.dtd"
   xmlns="http://www.w3.org/2000/svg"
   xmlns:svg="http://www.w3.org/2000/svg">
  <defs
     id="defs1">
    <linearGradient
       id="swatch5">
      <stop
         style="stop-color:#545454;stop-opacity:1;"
         offset="0"
         id="stop6" />
      <stop
         style="stop-color:#2a2a2a;stop-opacity:1;"
         offset="0.31841984"
         id="stop7" />
      <stop
         style="stop-color:#000000;stop-opacity:1;"
         offset="1"
         id="stop5" />
    </linearGradient>
  </defs>
  <sodipodi:namedview
     id="namedview1"
     pagecolor="#ffffff"
     bordercolor="#000000"
     borderopacity="0.25"
     inkscape:showpageshadow="2"
     inkscape:pageopacity="0.0"
     inkscape:pagecheckerboard="0"
     inkscape:deskcolor="#d1d1d1"
     inkscape:zoom="1.053008"
     inkscape:cx="-143.87355"
     inkscape:cy="25.166"
     inkscape:window-width="2548"
     inkscape:window-height="692"
     inkscape:window-x="6"
     inkscape:window-y="742"
     inkscape:window-maximized="1"
     inkscape:current-layer="svg1" />
  <rect
     style="display:none;fill:#000000"
     id="rect1"
     width="653.34711"
     height="507.77887"
     x="-58.434952"
     y="-15.338981" />
  <path
     d="m 481.72372,428.79352 c -35.44207,-0.077 -71.83017,-0.27163 -110.25608,-0.0199 -41.60824,-0.0851 -88.75495,0.007 -145.39682,0.13672 -76.34929,-0.3006 -195.851943,-0.13038 -195.851943,-0.13038 m 454.646943,2.69183 c -36.08945,-0.15935 -72.78514,0.019 -111.79941,-0.11499 -42.24936,-0.0996 -90.02467,0.0634 -147.5303,-0.2843 -77.12364,0.12314 -198.483476,0.4835 -198.483476,0.4835 m 454.657676,-8.5753 c -35.29096,0.20191 -71.73629,0.13763 -110.1756,0.10865 -41.60735,0.21097 -88.83096,0.14487 -145.68475,0.0181 -76.19638,0.14487 -195.587269,-0.0208 -195.587269,-0.0208 m 454.552169,2.61668 c -36.14579,-0.28974 -73.1902,-0.45 -111.8629,-0.29607 -42.14206,-0.0471 -89.7904,0.0109 -147.33269,0.0253 -77.21306,-0.0253 -198.465595,0.34044 -198.465595,0.34044 m 454.107765,-8.16785 c -1.70875,-0.086 -3.80826,-0.18743 -6.53546,-0.17656 -2.44108,0.0181 -4.61211,-0.0335 -3.69112,0.73611 5.97303,1.67232 12.07482,0.68812 12.07482,0.68812 M 30.367309,417.29913 c 1.983261,0.029 4.19364,0.0797 6.937837,0.0679 2.500089,0.0245 4.689008,-0.038 3.497978,0.76237 -5.835329,1.78912 -12.031008,0.80492 -12.031008,0.80492 m 444.288924,-7.31584 c -2.90872,-0.0317 -5.22014,-0.0733 -6.66333,0.0326 2.84703,1.32011 7.40549,2.3016 12.03548,2.24455 1.24736,-1.84435 -5.37215,-2.27714 -5.37215,-2.27714 M 39.52089,411.671 c -2.906041,-0.0136 -5.428484,0.17928 -7.609356,0.13219 0.03487,0.95613 1.520977,2.0354 6.015951,2.08248 6.984334,-1.72031 1.593405,-2.21467 1.593405,-2.21467 m 432.97593,-5.62813 c -3.07325,-0.0987 -5.75217,-0.23903 -8.00726,-0.47625 0.1225,0.29064 3.25119,1.78731 8.491,2.74344 3.82167,-1.12273 -0.48374,-2.26719 -0.48374,-2.26719 m -433.0725,-0.0797 c 3.171608,-0.15392 6.131299,-0.13491 8.553596,-0.0905 -0.265568,0.17203 -3.694696,1.6352 -8.977431,2.51346 -3.820773,-1.24496 0.423835,-2.42292 0.423835,-2.42292 m 425.21099,-5.76485 c 3.16714,0.096 5.88272,0.15845 7.8481,0.29245 0.63486,0.25171 0.21013,1.40523 -3.71973,1.97474 -7.01027,-1.39798 -4.12837,-2.26719 -4.12837,-2.26719 m -416.076186,-0.0588 c -3.168032,0.009 -6.104474,0.0199 -8.526771,0.16117 -0.998784,0.048 -1.365392,1.37805 1.809793,2.3034 6.970027,-1.05573 6.716978,-2.46548 6.716978,-2.46548 m 415.389466,-5.6236 c 2.6977,0.0317 4.81419,0.0543 6.48807,0.38933 -0.30402,1.1499 -2.70843,1.71398 -7.55928,1.41609 -5.94353,-2.00733 1.07121,-1.80542 1.07121,-1.80542 m -414.908405,-0.0154 c -2.911406,0.038 -5.153975,0.36851 -7.137236,0.26438 -0.137701,0.76599 1.732895,1.64064 6.245752,1.74114 6.699989,-1.73661 0.891484,-2.00552 0.891484,-2.00552 m 414.464895,-5.68336 c -2.91945,0.006 -5.90149,-0.01 -8.69845,-0.0833 -0.74484,-0.13401 1.96896,1.26307 7.15333,2.21014 4.58082,-0.8013 1.54512,-2.12684 1.54512,-2.12684 M 49.415735,388.70305 c 3.27712,0.0616 6.199256,0.0525 8.474015,-0.077 -0.459602,0.42193 -3.972781,1.64516 -9.107085,2.29797 -3.911083,-1.08651 0.632176,-2.22101 0.632176,-2.22101 m 404.950069,-5.59463 c 3.13853,0.0878 6.11521,-0.0272 8.35331,0.0444 0.57405,0.2997 0.36303,1.31649 -3.47831,1.88329 -6.78672,-1.14355 -4.875,-1.92765 -4.875,-1.92765 m -396.233735,-0.0453 c -3.190386,0.006 -6.111627,0.0263 -8.496369,0.009 -0.425623,0.38209 -0.444401,1.45321 2.39726,1.99466 7.033513,-0.8837 6.099109,-2.00371 6.099109,-2.00371 m 396.254305,-5.67974 c 2.43482,0.20824 4.66755,0.0932 6.38793,0.21639 -0.53025,0.91992 -3.17966,1.5519 -7.95809,1.26307 -5.57959,-1.79274 1.57016,-1.47946 1.57016,-1.47946 m -396.208703,-0.0217 c 2.968633,0.009 5.400765,-0.0344 7.227547,0 -2.762974,0.97786 -7.097892,1.76286 -11.652776,1.79636 -2.455381,-1.57997 4.426124,-1.79636 4.426124,-1.79636 m 395.723168,-5.62089 c 1.79996,0.22092 2.68608,0.40835 2.99546,1.14265 -1.8545,0.59758 -5.63146,0.64557 -10.49304,-0.71257 -1.15705,-0.78773 7.49669,-0.43008 7.49669,-0.43008 m -395.777717,-0.0715 c 3.129583,-0.0697 6.080332,-0.10775 8.733323,-0.0996 0.90132,-0.0453 -1.736471,1.15804 -6.851103,1.83621 -4.99213,-0.62294 -1.88222,-1.73661 -1.88222,-1.73661 M 445.4152,365.80119 c 3.06252,0.0498 5.68064,0.2173 7.76763,0.28068 0.16989,0.55503 -0.49895,1.32283 -4.58708,1.64788 -6.87614,-1.22504 -3.18055,-1.92856 -3.18055,-1.92856 m -378.384387,0.0652 c -3.203798,-0.003 -5.932794,0.0272 -7.984906,0.35946 -0.588361,0.24537 -0.148431,0.99596 3.75997,1.47041 6.985228,-1.05935 4.224936,-1.82987 4.224936,-1.82987 M 445.37944,360.2609 c -3.03838,-0.0697 -5.94621,-0.13853 -8.09489,-0.12043 1.35645,0.58129 5.19332,1.48128 10.22747,1.84074 3.31468,-1.168 -2.13258,-1.72031 -2.13258,-1.72031 M 67.125595,360.231 c 3.134947,-0.0806 5.772738,-0.17203 7.493114,-0.24085 -1.640795,0.90362 -5.472298,1.74657 -10.293644,1.79818 -3.091133,-0.84657 2.80053,-1.55733 2.80053,-1.55733 m 377.606465,-5.69785 c 1.72753,0.0652 2.37312,0.39205 2.17551,1.14084 -2.21485,0.39838 -5.90418,0.15935 -10.87038,-0.56771 -0.26825,-0.76237 8.69487,-0.57223 8.69487,-0.57223 m -377.398125,0.0978 c 2.846132,-0.15392 5.735184,-0.19014 8.420365,-0.30785 1.52366,-0.1503 -0.239636,0.74427 -4.916127,1.71579 -5.564397,-0.39386 -3.505132,-1.40794 -3.505132,-1.40794 m 368.505639,-5.92149 c 3.143,0.0896 5.67349,0.20191 7.44036,0.22183 0.43993,0.3332 -0.60446,1.05935 -4.68543,1.28118 -6.63293,-1.12997 -2.75582,-1.50301 -2.75582,-1.50301 m -359.07487,0.067 c -3.161772,0.0552 -5.795987,0.2499 -7.924997,0.25262 -0.69745,0.15845 -0.02235,0.98872 3.966522,1.39888 6.872563,-1.05935 3.958475,-1.6515 3.958475,-1.6515 m 358.92375,-5.56384 c -3.17876,-0.17203 -5.81029,-0.25896 -7.81054,-0.26891 1.11324,0.48349 4.60764,1.39435 9.38875,1.60803 3.91376,-0.91629 -1.57821,-1.33912 -1.57821,-1.33912 M 76.713741,343.02247 c 3.000822,-0.0525 5.469616,-0.17656 7.595049,-0.25352 -1.743624,0.46177 -5.225508,1.56096 -9.838513,1.88329 -3.636574,-1.05754 2.243464,-1.62977 2.243464,-1.62977 M 426.75753,337.2042 c 2.71469,0.0896 5.5483,0.10956 8.62513,0.10322 1.87953,0.009 2.11559,0.67635 -0.55975,1.47494 -6.67674,-0.29879 -8.06538,-1.57816 -8.06538,-1.57816 m -341.328349,0.0915 c 1.653313,-0.0842 1.911727,0.16841 -0.756465,0.90361 -3.873529,0.58853 -7.526199,0.57314 -10.0245,-0.32142 1.516507,-0.54869 10.780965,-0.58219 10.780965,-0.58219 m 341.866639,-5.61093 c 2.9722,-0.0254 5.51164,-0.0951 7.16227,-0.0453 -0.2915,0.62203 -2.50724,1.16528 -7.15602,1.14627 -6.01952,-1.22957 -0.006,-1.101 -0.006,-1.101 m -341.601072,-0.0634 c 2.286383,-0.19919 4.222254,-0.27615 4.816874,0.0516 -3.074144,0.67364 -7.212346,1.23591 -11.391679,1.05301 -1.185665,-0.9507 6.574805,-1.10462 6.574805,-1.10462 m 341.134312,-5.75942 c 2.30248,0.0163 3.66877,-0.002 4.34476,0.52696 -1.46197,0.70986 -4.80168,0.88189 -9.81974,0.42917 -3.14925,-1.01407 5.47498,-0.95613 5.47498,-0.95613 m -340.931336,0.01 c 3.123323,-0.0878 6.001645,-0.0996 8.296075,-0.0425 -0.971958,0.4337 -4.491397,1.04939 -9.523766,1.22414 -3.56057,-0.4328 1.227691,-1.18159 1.227691,-1.18159 m 331.986096,-5.71595 c -1.8706,-0.14668 -3.04553,-0.1503 -1.51472,0.45724 3.56147,0.67726 7.71398,0.94436 10.94102,0.39114 -0.5508,-0.77233 -9.42719,-0.84838 -9.42719,-0.84838 m -323.153525,-0.0471 c -3.100075,0.13401 -6.049035,0.10141 -8.855824,0.0706 -0.956758,0.27163 -1.336778,0.80402 1.927823,1.19516 6.423691,-0.43823 6.928001,-1.26579 6.928001,-1.26579 M 417.71393,314.4952 c -2.86133,0.0217 -5.31761,-0.0724 -7.06928,-0.0996 2.84881,0.63471 6.95304,1.11368 11.04474,1.16529 2.79874,-0.81217 -3.97636,-1.06569 -3.97636,-1.06569 M 94.855483,314.4436 c -2.927501,0.0607 -5.155764,0.18018 -7.211452,0.23541 0.290604,0.3667 2.223792,0.88913 6.581958,0.89637 6.418331,-0.88731 0.629494,-1.13178 0.629494,-1.13178 M 417.595,308.81546 c -3.03033,-0.057 -5.83443,-0.11318 -8.26656,-0.27887 -0.38897,0.13129 1.70785,0.96247 6.80281,1.35995 4.78379,-0.5179 1.46375,-1.08108 1.46375,-1.08108 M 94.779478,308.69594 c 3.22347,-0.0181 6.116102,0.003 8.543762,0.0109 0.11624,0.12585 -2.93913,0.85925 -8.076113,1.27393 -4.138202,-0.65009 -0.467649,-1.2857 -0.467649,-1.2857 m 314.311112,-5.67521 c 3.06699,0.0181 5.79509,0.0272 8.03855,0.19013 0.50074,0.0272 -0.28702,0.62837 -4.28931,0.95704 -6.49165,-0.7841 -3.74924,-1.14717 -3.74924,-1.14717 m -305.17094,-0.058 c -3.18502,0.0833 -6.125042,0.11499 -8.547339,0.32595 -0.871812,0.0516 -0.867342,0.43642 2.725419,0.75513 6.46125,-0.69265 5.82192,-1.08108 5.82192,-1.08108 m 304.79271,-5.60097 c 2.65835,-0.0109 4.73729,-0.0688 6.24843,0.16298 -1.03902,0.59486 -3.48546,0.76055 -8.19593,0.64285 -5.25412,-0.92263 1.9475,-0.80583 1.9475,-0.80583 M 104.40697,297.36 c -2.729,0.14216 -5.303303,0.19467 -7.300871,0.11952 0.736794,0.53149 2.908721,0.64829 7.106831,0.63652 5.98377,-0.93169 0.19404,-0.75604 0.19404,-0.75604 m 303.5516,-5.69513 c -3.16713,-0.006 -6.05261,-0.0308 -8.44361,-0.19014 -0.54812,-0.0344 1.87954,0.49074 6.57212,0.90181 4.76859,-0.31328 1.87149,-0.71167 1.87149,-0.71167 m -303.95398,-0.0272 c 3.16535,0.0299 6.06782,0.0507 8.50621,-0.0136 0.79759,-0.0969 -1.57821,0.40744 -6.69463,0.74426 -4.83297,-0.26439 -1.81158,-0.73068 -1.81158,-0.73068 m 295.57564,-5.7069 c 3.16625,0.0263 5.98734,-0.029 8.17268,-0.0516 -0.0116,0.22454 -1.27865,0.65371 -5.21835,0.65371 -6.20104,-0.70985 -2.95433,-0.6021 -2.95433,-0.6021 m -286.17348,-0.0299 c -3.219,0.12495 -5.95872,0.24718 -8.1843,0.23541 -0.80922,-0.0181 -0.32011,0.57675 3.17339,0.67001 6.17869,-0.67001 5.01091,-0.90542 5.01091,-0.90542 m 285.67275,-5.7051 c 2.70664,0.029 4.80167,-0.008 6.23055,0.0688 -1.01577,0.40834 -3.80915,0.61116 -8.48832,0.32595 -5.49018,-0.4509 2.25777,-0.39477 2.25777,-0.39477 m -285.56634,-0.0996 c 2.88994,-0.0272 5.30956,-0.11046 7.11756,-0.1159 -2.391,0.25714 -6.25201,0.86106 -10.65846,0.83571 -3.2503,-0.59758 3.5409,-0.71981 3.5409,-0.71981 m 285.36605,-5.58015 c 1.89563,0.0272 2.69949,0.0154 2.33735,0.36399 -2.20859,0.21368 -6.14203,0.25714 -10.89721,-0.22364 -0.71712,-0.17475 8.55986,-0.14035 8.55986,-0.14035 m -284.01675,-0.0254 c 3.17786,0.0263 5.98733,-9e-4 8.35687,-0.004 -0.51861,0.0471 -3.57934,0.30422 -8.54554,0.68269 -4.39573,-0.38299 0.18777,-0.67907 0.18777,-0.67907 m 275.25124,-5.74493 c 3.13495,0.0525 5.82997,0.0942 7.91963,0.11227 0.0841,0.0398 -1.27687,0.30785 -5.55009,0.40835 -6.60163,-0.38662 -2.36954,-0.52062 -2.36954,-0.52062 m -267.68838,0.0254 c -3.21632,-0.0444 -6.00164,-0.0344 -8.32022,-0.0516 -0.33799,0.0788 0.91116,0.41922 4.97693,0.61569 6.46661,-0.31418 3.3424,-0.56408 3.3424,-0.56408 m 267.64456,-5.69332 c -3.15641,-0.0389 -5.97839,-0.0453 -8.03319,-0.0987 1.17315,0.17746 4.37695,0.4165 9.28592,0.53239 3.89409,-0.27978 -1.25183,-0.4337 -1.25183,-0.4337 m -267.49077,0.01 c 3.02228,-0.0679 5.42222,-0.17112 7.59862,-0.15211 -1.55763,0.3178 -5.13877,0.33501 -9.86355,0.58581 -3.84491,-0.34949 2.26493,-0.4337 2.26493,-0.4337 m 267.10449,-5.70781 c 1.64526,-0.0109 2.12096,0.12495 1.46643,0.24628 -2.69144,0.0833 -6.62846,0.0525 -11.21374,-0.15392 0.14575,-0.20644 9.74731,-0.0924 9.74731,-0.0924 m -267.14652,-0.0516 c 2.8363,-0.10865 5.78168,-0.0942 8.61529,-0.14034 1.92962,0.1503 0.40685,0.35312 -4.24281,0.3332 -5.55367,0.11952 -4.37248,-0.19286 -4.37248,-0.19286 M 380.5184,251.6518 c 2.91855,0.0607 5.54383,0.17474 7.69251,0.28339 -0.0966,-0.0462 -1.53529,-0.10503 -5.81924,-0.12676 -6.16617,-0.26347 -1.87327,-0.15663 -1.87327,-0.15663 m -248.94308,-0.0751 c -3.12243,0.11317 -6.02132,0.0389 -8.1548,0.0435 0.48732,0.14124 2.14064,0.30422 6.18674,0.3341 5.83354,-0.49074 1.96717,-0.37756 1.96717,-0.37756 m 248.83041,-5.58105 c -3.01603,-0.0951 -5.8094,-0.14668 -7.85615,-0.24085 0.82263,0.0942 3.87889,0.19739 8.7065,0.41107 3.99871,-0.0896 -0.85035,-0.17022 -0.85035,-0.17022 m -248.29749,-0.0833 c 3.10812,-0.0697 5.7164,-0.17566 7.74348,-0.13038 -1.36271,0.20191 -4.74355,0.31961 -9.6409,0.22001 -3.85922,-0.076 1.89742,-0.0896 1.89742,-0.0896 M 371.22354,240.128 c 2.95879,0.0589 5.96587,0.13943 8.69398,0.17927 1.87417,-0.11137 1.85271,-0.067 -1.39133,-0.0154 -6.29493,-0.18652 -7.30265,-0.16298 -7.30265,-0.16298 m -230.47139,-0.0607 a 436.3532,441.84811 0 0 0 -8.92825,0.14849 c -1.74094,-0.0824 -1.62113,-0.009 1.50756,0.14758 6.25201,-0.19919 7.42158,-0.29607 7.42158,-0.29607 m 231.16616,-5.54936 c 2.78622,0.0435 5.32655,-0.0887 7.12471,0.14487 -0.74484,-0.0453 -3.10633,-0.16751 -7.79087,-0.25805 -5.45888,-0.18199 0.66616,0.11318 0.66616,0.11318 m -231.1599,-0.0208 c -3.14478,-0.0453 -5.72713,-0.0507 -7.52977,0.20553 0.61697,0.18108 2.52155,0.0398 6.82249,-0.26891 6.05082,-0.0842 0.70639,0.0634 0.70639,0.0634 m 230.60193,-5.70147 c 2.1773,0.0389 3.34419,0.0136 3.99514,0.0453 -1.55585,-0.0797 -5.08781,-0.019 -9.87875,-0.0996 -2.61723,-0.0996 5.88361,0.0543 5.88361,0.0543 m -228.56144,0.0109 c 2.95253,-0.11771 5.45709,-0.10412 7.37687,-0.0715 -2.18177,0.038 -5.948,0.0371 -10.23821,0.0996 -3.3719,0.28249 2.86134,-0.0281 2.86134,-0.0281 m 220.55508,-5.77843 c 3.03122,0.0371 5.92743,-0.0362 8.28445,0.0172 0.30312,0.0453 -0.82979,-0.007 -4.80167,-0.14668 -6.23234,-0.0878 -3.48278,0.12948 -3.48278,0.12948 m -213.35883,-0.10231 c -2.95075,0.11951 -5.89703,0.14305 -8.50353,0.26166 -1.15079,0.0263 -0.70639,-0.10865 2.39905,-0.21368 6.3763,0.0217 6.10448,-0.048 6.10448,-0.048 m 212.34037,-5.6562 c -2.74777,0.0634 -5.0118,-0.0299 -6.79656,-0.17747 2.22022,-0.14487 6.00612,0.006 10.58693,0.11771 3.219,0.13672 -3.79037,0.0598 -3.79037,0.0598 m -212.20267,0.0163 c -3.00351,0.0236 -5.55009,0.0371 -7.37061,0.0516 0.75109,-0.0543 2.92392,-0.14486 7.57001,-0.048 5.67259,-0.10866 -0.1994,-0.004 -0.1994,-0.004 m 212.13829,-5.66072 c 1.89116,0.11589 2.72989,0.27706 3.0205,0.0706 -1.86166,-0.22002 -5.52238,-0.41468 -10.4233,-0.25895 -1.3189,-0.0942 7.4028,0.18833 7.4028,0.18833 m -210.41076,0.004 c 3.13316,0.0217 5.71909,0.0362 7.45735,-0.22092 -1.38328,0.0199 -4.63357,0.0489 -9.34047,-0.0362 -3.79752,0.34044 1.88222,0.25714 1.88222,0.25714 m 200.84229,-5.76757 c 3.24225,0.004 6.09464,-0.038 8.2165,0.0389 0.6438,0.28068 0.34425,-0.10051 -3.28606,-0.35674 -6.42012,0.17656 -4.93044,0.3178 -4.93044,0.3178 m -41.14775,-0.14849 c -1.66315,0.0589 -3.00171,0.029 -3.90303,0.0199 1.66672,-0.0634 4.35101,-0.2336 7.38581,-0.0869 1.75257,0.0362 -3.48278,0.067 -3.48278,0.067 m -111.11805,0.18743 c -1.51919,0.057 -2.43571,0.0453 -2.63422,-0.10865 1.39222,-0.13582 3.84939,-0.19014 6.87704,-0.18381 1.64795,0.24718 -4.24282,0.29246 -4.24282,0.29246 m -41.31138,-0.009 c -3.143,0.0887 -6.03742,0.057 -8.40606,0.0733 -0.5669,0.006 0.0849,-0.23088 3.71347,-0.39839 6.08927,-0.076 4.69259,0.32505 4.69259,0.32505 m 98.27782,-0.16116 c 0.63665,0.0145 1.07926,0.0326 1.23753,0.029 -0.50252,-0.038 -1.44229,-0.0661 -2.62259,-0.0607 -0.66973,0.0634 1.38596,0.0317 1.38596,0.0317 m 95.99681,-5.5557 c 2.712,0.0217 4.8285,0.004 5.78883,0.0516 -1.00504,-0.18199 -3.89678,-0.41831 -8.47401,-0.40473 -4.7221,0.28431 2.68518,0.35312 2.68518,0.35312 m -36.91209,-0.0598 c -4.38499,-0.01 -8.46775,0.0109 -12.40655,-0.134 -0.9809,0.134 2.01992,-0.0878 8.60456,-0.31147 8.16374,0.18833 3.80199,0.44547 3.80199,0.44547 m -55.96855,-0.0842 c -3.0196,0.14758 -5.98108,0.10322 -8.84688,0.0833 -1.05065,-0.18652 -0.0304,-0.2327 4.17039,-0.23089 6.15723,0.0607 4.67649,0.14849 4.67649,0.14849 m -54.53342,0.22455 c -4.25892,-0.18109 -8.19325,-0.22364 -11.89242,-0.52696 -1.00057,-0.005 1.18656,0.0226 7.11846,-0.0245 8.41053,0.007 4.77396,0.55141 4.77396,0.55141 m -46.20694,-0.0824 c -2.86044,0.096 -5.37394,0.21097 -7.19268,0.22093 0.68762,-0.32777 3.16803,-0.53239 7.68,-0.62565 5.59658,0.27615 -0.48732,0.40472 -0.48732,0.40472 m 192.98256,-5.7078 a 635.7523,643.75822 0 0 0 -8.76998,-0.0362 c -0.96838,-0.0398 1.09446,-0.34769 5.86662,-0.44276 5.27201,0.23542 2.90336,0.47898 2.90336,0.47898 m -27.64852,-0.23542 c 1.34841,0.0987 0.005,-0.22907 -5.84337,-0.21458 -6.85468,0.0326 -14.87267,0.005 -20.51844,0.17475 6.88508,0.13219 26.36181,0.0398 26.36181,0.0398 m -64.36656,0.20916 c -4.93849,-0.0706 -9.82779,-0.009 -14.3174,-0.39839 -0.41221,0.27163 3.27802,-0.0471 11.01882,-0.11589 9.90736,0.32052 3.29858,0.51428 3.29858,0.51428 m -46.198,-0.19467 c -5.72893,0.17203 -11.71269,0.17475 -17.98795,0.21097 -6.35752,-0.009 -8.27462,0.0362 -2.83898,-0.36399 12.70611,-0.13581 20.82693,0.15302 20.82693,0.15302 m -54.11317,0.17294 c 3.21006,0.0589 6.09196,0.009 8.3846,-0.0589 -0.40148,-0.0715 -3.1877,-0.36489 -7.76404,-0.40383 -4.68275,0.40654 -0.62056,0.46268 -0.62056,0.46268 m 183.46059,-5.6897 c 3.14747,0.019 5.96677,0.10865 8.33632,0.134 -0.0322,-0.0634 -1.38149,-0.54869 -5.52595,-0.64828 -6.15723,0.35583 -2.81037,0.51428 -2.81037,0.51428 m -18.75514,0.0534 c 3.65714,0.0272 6.78047,-0.0362 9.04807,-0.0326 -1.40652,-0.28702 -4.99749,-0.52514 -10.86144,-0.50885 -6.54619,0.45453 1.81337,0.54145 1.81337,0.54145 m -27.4062,-0.14396 c 3.50692,0.15392 6.82517,0.14758 9.70528,0.15392 -0.55706,-0.23089 -3.37279,-0.45543 -8.8737,-0.55412 -6.96556,0.18289 -0.83158,0.4002 -0.83158,0.4002 m -27.98741,0.0616 c -6.70893,0.0272 -13.05751,0.0389 -19.04127,0.0118 -7.72202,-0.0742 -8.93093,-0.14486 -0.94424,-0.47263 12.8751,-0.0172 19.98551,0.46177 19.98551,0.46177 m -54.77037,0.0507 c -3.46668,0.10141 -6.52205,-0.009 -8.74763,-0.057 1.7776,-0.24446 5.62431,-0.47987 11.44623,-0.4346 5.87467,0.26257 -2.6986,0.49164 -2.6986,0.49164 m -27.49383,-0.0987 c 3.84671,0.0815 7.17122,0.10413 10.06295,0.0652 -1.17136,-0.22454 -4.76769,-0.42645 -10.59587,-0.58219 -6.11431,0.41559 0.53292,0.517 0.53292,0.517 m -18.71222,0.0426 c -3.19664,0.0444 -6.11073,0.0498 -8.57148,0.0109 -0.66436,-0.0471 0.31117,-0.39386 4.31167,-0.53058 6.4541,0.36217 4.25981,0.51881 4.25981,0.51881 m 175.41309,-5.67793 c 3.57578,-0.0226 4.52449,0.0208 1.9931,-0.60663 -6.09553,0.0942 -13.24439,0.0597 -20.91455,0.32504 1.53975,0.38662 18.92145,0.28069 18.92145,0.28069 m -46.31781,0.01 c 2.60202,0.16478 3.61869,0.19919 2.89799,-0.26167 -3.32988,-0.3332 -8.20845,-0.43642 -13.45363,-0.0752 -0.73947,0.33953 10.55564,0.33682 10.55564,0.33682 m -27.84792,0.004 c 3.68843,0.0217 7.22486,0.0507 10.18008,0.0516 -0.22891,-0.22908 -2.88011,-0.59758 -8.31128,-0.73702 -6.96287,0.50613 -1.8688,0.68541 -1.8688,0.68541 m -27.25151,-0.0435 c -3.58293,-0.0561 -6.9432,0.005 -9.82153,0.16479 1.18567,-0.34226 4.66576,-0.64829 10.39469,-0.70171 6.34858,0.46267 -0.57227,0.49798 -0.57227,0.49798 m -19.07436,-0.0254 a 86.73414,87.826367 0 0 0 -10.02271,0.55775 c -0.31295,-0.0208 1.46286,-0.91449 6.71072,-1.10825 7.28031,0.41288 3.31199,0.5505 3.31199,0.5505 m -36.85932,0.1331 c -5.77811,0.029 -11.48378,0.0263 -17.15458,0.005 -5.37663,-0.0407 -5.365,-0.33953 1.4548,-0.46358 11.95143,-0.20462 15.69978,0.45724 15.69978,0.45724 m 156.64096,-5.77299 c 1.85361,0.1675 2.16746,0.13672 0.88522,-0.47083 -4.19364,-0.21639 -9.55506,-0.15935 -14.8369,0.24175 1.45749,0.25714 13.95168,0.22908 13.95168,0.22908 m -54.54773,0.0752 c 4.26518,-0.0299 5.97125,0.30694 5.11374,-0.44095 -5.75128,-0.24175 -12.76601,-0.28702 -20.6928,-0.27887 -1.26345,0.76961 15.57996,0.71982 15.57996,0.71982 m -55.50806,-0.077 c -5.23088,0.0878 -10.147,-0.0118 -14.67327,0.0806 1.1177,-0.40111 5.93726,-0.57948 14.17253,-0.75784 10.1783,0.41649 0.50074,0.67725 0.50074,0.67725 m -54.96978,0.0625 c 4.12211,-0.0172 6.82875,0.0245 7.32144,-0.25624 -4.24103,-0.34406 -9.91452,-0.55502 -16.23359,-0.42826 -3.19396,0.76056 8.91215,0.6845 8.91215,0.6845 m 156.35215,-5.74584 c 3.15641,0.0299 5.85321,0.077 7.83916,0.12948 -0.32101,-0.28068 -2.26135,-0.59124 -6.46751,-0.82756 -5.92832,0.47806 -1.37165,0.69808 -1.37165,0.69808 m -46.73718,0.26258 c 1.95107,-0.17385 2.32662,-0.40382 0.49,-0.79678 a 53.918233,54.597216 0 0 0 -11.88615,0.68813 c 0.63575,-0.14216 11.39615,0.10865 11.39615,0.10865 m -54.86248,-0.27797 c -3.54715,-0.0326 -6.63829,-0.0417 -9.1035,0.10775 0.24053,-0.21278 2.60828,-0.68903 7.59505,-0.78139 6.06513,0.50523 1.50935,0.67364 1.50935,0.67364 m -55.3489,-0.0607 c -3.24314,0.003 -6.10179,0.0697 -8.33005,0.13491 0.23158,-0.11137 1.60681,-0.57948 5.85321,-0.82756 6.21535,0.4346 2.47684,0.69174 2.47684,0.69174 m 156.79386,-5.65891 c -3.13673,-0.0163 -5.855,0.0426 -8.05912,0.0362 0.74842,-0.28973 3.6178,-0.66096 8.33721,-0.78047 4.61658,0.51971 -0.27809,0.74426 -0.27809,0.74426 m -156.81085,0.0254 c 3.13048,0.0335 5.779,-0.005 7.88029,-0.005 -1.30996,-0.30513 -4.57992,-0.73974 -9.29307,-0.81036 -3.88337,0.97967 1.41278,0.81488 1.41278,0.81488 m 105.21566,0.33863 c 1.02383,-0.029 1.86881,-0.0272 2.44734,-0.0661 -0.49626,-0.23904 -1.57999,-0.40745 -3.26103,-0.32596 -1.6855,0.33954 0.81369,0.39115 0.81369,0.39115 m -49.87481,-0.46901 c -0.82531,-0.1494 -1.78833,-0.24447 -2.99635,-0.24719 -0.86287,0.15574 -1.15884,0.36489 -0.51862,0.37395 2.17104,-0.002 3.51497,-0.12676 3.51497,-0.12676 m 100.14753,-5.44252 c 1.80622,0.11951 2.74152,0.0806 2.11023,-0.3495 -2.51082,-0.60573 -6.18763,-0.7008 -10.18813,-0.45633 -0.46854,0.48078 8.0779,0.80583 8.0779,0.80583 m -155.13429,-0.0761 c -1.73737,0.1159 -2.07357,0.13582 -1.25362,-0.38752 2.39189,-0.55412 6.22608,-0.65462 10.24089,-0.13219 0.15022,0.49164 -8.98638,0.51971 -8.98638,0.51971 m 147.05997,-5.92058 c 3.04911,0.0598 5.51522,0.27887 7.43142,0.39476 -0.54902,-0.30331 -2.24615,-1.00321 -6.45588,-1.27484 -5.81387,0.62113 -0.97554,0.88008 -0.97554,0.88008 m -138.42679,0.22907 c -3.08756,0.0136 -5.84427,-0.0435 -7.91427,-0.0245 0.43993,-0.37484 2.62796,-0.85381 6.86631,-1.01588 5.49018,0.42374 1.04796,1.03943 1.04796,1.03943 m 138.57254,-5.71053 c -3.14836,-0.0281 -5.77274,-0.18108 -7.81322,-0.24446 0.0152,-0.12405 2.34808,-0.70624 7.09521,-0.90181 4.8276,0.61931 0.71801,1.14627 0.71801,1.14627 m -137.99401,-0.1503 c 3.12511,-0.0797 5.76022,0.005 7.7095,-0.11137 -0.80654,-0.26076 -3.83329,-0.75693 -8.57685,-0.86559 -4.41181,0.80131 0.86735,0.97696 0.86735,0.97696 m 129.18469,-5.77119 c -1.74363,-0.18652 -2.49205,-0.22998 -1.35735,-0.785 2.7898,-0.15845 6.69194,-0.26891 10.34282,0.20824 -0.27272,0.9172 -8.98547,0.57676 -8.98547,0.57676 m -120.76791,0.0371 c 1.74631,-0.10231 2.06016,-0.33319 0.27094,-0.83299 -2.87743,-0.25895 -6.73218,-0.28068 -10.22837,0.42827 1.09088,0.65191 9.95743,0.40472 9.95743,0.40472 m 120.82334,-5.65801 c 2.92124,0.0181 5.33818,-0.0136 6.97092,0.067 -1.06763,-0.52968 -4.07739,-0.9996 -8.6895,-1.25493 -4.85801,0.91449 1.71858,1.18792 1.71858,1.18792 m -120.51485,0.0326 c -3.03927,0.0299 -5.7316,0.005 -7.50027,0.067 0.70282,-0.51247 2.99993,-1.12182 7.49044,-1.34275 5.23981,0.56861 0.01,1.27665 0.01,1.27665 m 119.94438,-5.69241 c 2.27475,0.006 3.60349,-0.0408 3.78858,-0.49436 -2.0548,-0.6664 -5.855,-0.9344 -10.41346,-0.51791 -1.89206,0.85654 6.62398,1.01227 6.62398,1.01227 m -119.85317,0.0869 a 543.65316,550.49929 0 0 1 8.17984,-0.28159 c -0.13949,-0.3676 -2.25956,-0.82575 -6.85021,-1.02494 -5.24697,0.59939 -1.32873,1.30653 -1.32873,1.30653 m 111.68406,-5.86264 c 3.24314,-0.0181 6.11431,-0.0136 8.34615,0.0724 -0.0358,-0.18743 -1.48968,-1.04758 -5.66723,-1.44959 -5.75664,0.78953 -2.67892,1.37715 -2.67892,1.37715 m -102.55552,0.0226 c -3.0196,-0.004 -5.84606,0.0109 -8.45881,0.0815 -1.44587,0.0172 -0.75468,-0.81398 3.18234,-1.46498 6.1608,0.51428 5.27647,1.38258 5.27647,1.38258 m 101.6846,-5.69151 c -2.80589,-0.0552 -4.82402,-0.19195 -6.60878,-0.25985 1.61665,-0.62113 4.78379,-1.04306 9.58546,-1.08018 3.50066,1.40885 -2.97668,1.34003 -2.97668,1.34003 M 205.412,120.10919 c -2.95879,0.005 -5.3641,0.0842 -7.15869,0.21368 0.95676,-0.7008 3.53553,-1.40703 8.01352,-1.52564 5.08154,0.85382 -0.85393,1.31287 -0.85393,1.31287 m 101.50308,-5.55479 c 1.98952,0.0154 2.65747,0.048 2.41157,-0.53421 -2.29622,-0.56679 -5.79599,-1.08832 -10.0093,-0.66639 -1.29654,0.97243 7.59773,1.2006 7.59773,1.2006 m -101.5621,-0.0444 c 3.08935,-0.13853 6.07676,-0.15392 8.55092,-0.20281 0.41578,-0.17475 -1.51025,-1.07203 -5.93369,-1.37987 -5.27558,0.92534 -2.61723,1.58268 -2.61723,1.58268 m 92.09109,-5.82551 c 3.1573,0.0254 6.03563,0.10412 8.69309,0.0996 0.58389,-0.17837 -0.74574,-1.0014 -4.76591,-1.66417 -6.02936,0.71438 -3.92718,1.56458 -3.92718,1.56458 m -82.87313,-0.0299 c -3.14925,0.0996 -6.07317,0.17927 -8.70649,0.0842 -0.64291,-0.22454 0.77434,-0.97243 4.87052,-1.59264 5.91402,0.73701 3.83597,1.50934 3.83597,1.50934 m 83.49011,-5.65257 c 2.54837,0 4.57813,0.10684 5.94352,0.0335 -1.563,-1.05754 -4.86069,-1.59808 -9.4567,-1.45865 -3.89589,1.09104 3.51318,1.42515 3.51318,1.42515 m -83.00189,0.0254 c -2.8059,-0.0534 -5.26396,-0.0362 -6.9745,0.21458 0.89148,-0.97333 3.73136,-1.75471 8.52588,-1.79274 4.77037,1.28118 -1.55049,1.57816 -1.55049,1.57816 m 82.55928,-5.702378 c -3.1117,-0.06157 -6.08301,-0.08873 -8.81738,-0.06972 -1.08551,-0.01268 0.21639,-1.10462 4.56204,-1.652403 5.58854,0.809451 4.25623,1.722121 4.25623,1.722121 m -82.79802,0.10321 c 3.09382,-0.101407 6.01774,-0.216397 8.33632,-0.249897 0.6581,-0.292453 -0.71355,-1.070214 -4.96263,-1.577253 -5.40076,1.056632 -3.37369,1.82715 -3.37369,1.82715 m 73.74638,-5.857203 c 3.1877,0.0163 6.00164,-0.02897 8.25315,0.06972 0.0224,-0.336818 -2.08609,-1.346369 -6.26989,-1.826245 -5.16292,0.586717 -1.98326,1.756528 -1.98326,1.756528 M 223.6986,91.5285 c -3.11975,-0.04256 -5.89524,-0.0163 -8.00637,0.178369 -0.0653,-0.153923 1.44319,-1.168 5.42759,-2.034494 5.77185,0.995969 2.57878,1.856125 2.57878,1.856125 m 64.6983,-5.662537 c -2.93733,-0.07968 -5.66722,0.04889 -7.62724,-0.242655 1.23395,-0.704422 4.04521,-1.483994 8.60814,-1.558239 4.53879,1.412466 -0.9809,1.799988 -0.9809,1.799988 m -64.24317,-0.02626 c 2.92392,-0.03622 5.49555,0.01992 7.46003,-0.04618 -1.66941,-0.909954 -4.91255,-1.629768 -9.56758,-1.702202 -4.24103,1.600794 2.10844,1.747473 2.10844,1.747473 m 64.07239,-5.671591 c 1.88669,-0.0045 2.53049,-0.220924 1.37344,-1.265786 -3.0661,-0.602109 -6.90565,-0.755126 -10.9133,0.234505 0.41579,0.903616 9.54076,1.031281 9.54076,1.031281 m -62.99045,-0.0163 c 3.15194,-0.0027 6.03562,-0.03622 8.58668,0 0.22354,-0.251708 -2.14153,-1.472223 -6.3915,-1.973829 -5.49197,1.054821 -2.19518,1.973829 -2.19518,1.973829 m 54.24013,-5.772093 c 3.05179,0.151206 5.75843,0.253519 8.01173,0.10684 -0.59372,-0.697179 -2.90872,-1.702202 -7.44572,-2.12232 -5.42222,1.412466 -0.56601,2.01548 -0.56601,2.01548 m -46.51632,-0.01449 c -3.12064,0.09688 -5.8398,0.150301 -8.0162,0.234505 0.15379,-0.566797 2.19696,-1.745662 6.55692,-2.254512 5.53847,1.298382 1.45839,2.019101 1.45839,2.019101 m 46.45552,-5.639901 c -3.10634,-0.100502 -5.96499,-0.114989 -8.09668,-0.100502 0.7207,-0.539635 3.13316,-1.618903 7.53335,-1.991939 4.9823,1.500292 0.56333,2.091535 0.56333,2.091535 m -46.18638,-0.06157 c 3.05715,-0.05433 5.59748,-0.06157 7.68447,-0.05161 -0.84678,-0.661867 -3.61959,-1.685904 -8.2317,-1.781879 -4.84996,1.29476 0.54723,1.833488 0.54723,1.833488 m 44.42487,-5.563845 c 1.97611,0.0091 2.50813,0.06972 2.1299,-0.910859 -2.35613,-1.045768 -6.09732,-1.412466 -10.1613,-0.7841 -0.68851,1.295666 8.0314,1.694959 8.0314,1.694959 m -36.75292,-0.10503 c 2.06284,-0.05161 2.96416,-0.114989 2.23541,-1.135404 -2.76208,-0.756032 -6.61683,-0.899994 -10.49304,-0.05614 -0.77345,1.362667 8.25763,1.191541 8.25763,1.191541 m 28.85206,-5.702376 c 3.10991,0.03441 5.62431,0.05614 7.72739,0.139436 -0.70639,-0.794059 -3.20648,-1.84707 -7.59684,-2.422921 -5.10569,1.529265 -0.13055,2.283485 -0.13055,2.283485 m -27.63242,0.02535 c -3.14389,-0.0163 -5.81387,0.0036 -7.60667,0.235411 0.49358,-0.854722 2.86312,-2.125941 7.43052,-2.549681 5.43117,1.593551 0.17615,2.31427 0.17615,2.31427 m 27.75045,-5.76485 c -3.15819,0.03622 -6.10179,0.05976 -8.33273,-0.01449 0.42383,-0.622028 2.8041,-1.823529 7.20877,-2.387609 4.98945,1.796366 1.12396,2.402096 1.12396,2.402096 m -27.09056,0.01901 c 3.20291,0.01811 5.89167,0.0326 7.98044,-0.06247 -0.77256,-0.670016 -3.44254,-1.908639 -8.14586,-2.297067 -4.55041,1.943045 0.16542,2.359541 0.16542,2.359541 m 17.8574,-5.654388 c 3.04374,-0.01992 5.9167,0.0063 8.78519,0.03622 1.37075,0.01449 0.40952,-1.340031 -3.30842,-2.453706 -6.18227,0.678165 -5.47677,2.417489 -5.47677,2.417489 m -9.16252,-0.03712 c 1.93229,0.0833 2.44465,-0.131287 1.05064,-1.448682 -3.0956,-0.887318 -7.06838,-1.020416 -10.61554,0.361265 0.12876,1.100999 9.5649,1.087417 9.5649,1.087417 m 9.81795,-5.707808 c 4.04163,-0.07062 5.93547,-0.08149 4.31882,-1.856124 -5.33817,-0.431889 -11.57498,-0.783194 -18.37512,-0.0018 -1.08731,1.895057 14.0563,1.85884 14.0563,1.85884 m 0.0188,-5.80831 c -3.87621,-0.0833 -7.73096,0.03169 -11.38721,0.214586 -1.90099,0.05523 -0.72695,-1.330977 3.85565,-2.707226 8.27283,0.49889 7.53156,2.49264 7.53156,2.49264 m -6.74291,-5.6562 c 2.60203,-0.09054 4.90361,-0.05885 6.74381,0.01268 -0.47033,-0.715287 -2.4527,-2.022722 -6.19747,-2.487206 -4.2616,1.577253 -0.54634,2.47453 -0.54634,2.47453 m -1.26792,-5.759417 c 0.56064,-0.626555 1.36271,-1.164379 2.52691,-1.537414 1.35913,0.365792 2.47684,1.04124 2.4518,1.560049 -2.02528,0.09598 -4.97871,-0.02264 -4.97871,-0.02264"
     stroke="#ffffff"
     stroke-width="10.7973"
     fill="#ffffff"
     id="path1"
     style="display:inline;fill:#aca793;stroke:#282828;stroke-opacity:1" />
  <path
     style="fill:#ffffff;stroke-width:0.854484"
     d="m 46.792153,416.29368 c -0.527848,-1.58857 0.244993,-3.95432 1.389427,-4.25317 1.756259,-0.45863 17.498585,-10.55356 17.503169,-11.22408 0.0024,-0.35469 -2.288307,-0.64489 -5.090517,-0.64489 -2.802209,0 -5.094926,-0.17526 -5.094926,-0.38947 0,-1.67573 2.336413,-4.67692 4.938438,-6.34353 1.720691,-1.10212 5.421246,-4.10015 8.223455,-6.66228 l 5.094927,-4.65842 -3.085337,-0.002 c -2.608833,-9e-4 -3.147459,-0.33061 -3.487575,-2.13222 -0.291444,-1.5438 0.03075,-2.26982 1.169712,-2.63587 2.630216,-0.84531 4.128796,-2.95365 4.142471,-5.82801 0.01538,-3.23185 0.601871,-4.27391 3.178978,-5.64823 1.474951,-0.78657 1.798324,-1.50681 1.399312,-3.11662 -0.415237,-1.67527 -0.08572,-2.29352 1.648951,-3.09385 1.403972,-0.64774 2.350903,-1.94305 2.687265,-3.67592 0.885514,-4.56199 2.262732,-7.40489 3.587241,-7.40489 0.901959,0 1.15023,-0.63286 0.857197,-2.18507 -0.346137,-1.83349 0.04296,-2.37777 2.418248,-3.38273 1.801739,-0.7623 3.02677,-1.98847 3.369975,-3.37313 0.581346,-2.34543 0.78934,-2.44481 8.437346,-4.03165 2.80221,-0.58142 5.38569,-1.30965 5.74106,-1.61831 0.35538,-0.30866 -1.65075,-1.67283 -4.45806,-3.03149 -5.515216,-2.66924 -6.161966,-3.98822 -3.193595,-6.51302 1.547462,-1.31622 1.687052,-1.77427 0.734434,-2.40999 -0.94585,-0.63119 -0.822861,-0.97636 0.628076,-1.76265 0.992335,-0.53777 2.391185,-2.12708 3.108565,-3.5318 0.71738,-1.40474 1.80847,-2.55407 2.42465,-2.55407 1.95846,0 3.93056,-3.04385 3.94351,-6.08664 0.007,-1.61796 0.56366,-3.90908 1.23727,-5.09137 0.67361,-1.18229 1.61382,-3.02021 2.08935,-4.08428 0.47553,-1.06406 1.38801,-1.93465 2.02774,-1.93465 1.93262,0 3.97382,-2.97994 3.97382,-5.80136 0,-3.51733 0.76555,-5.37667 2.21374,-5.37667 0.7482,0 1.18288,-0.9479 1.18288,-2.57954 0,-1.71969 0.42457,-2.57954 1.27373,-2.57954 0.89175,0 1.27373,-0.91062 1.27373,-3.03645 0,-1.81815 0.47987,-3.22292 1.19599,-3.50118 0.65779,-0.2556 1.65945,-1.59772 2.2259,-2.98249 0.64285,-1.57151 1.65483,-2.51775 2.69269,-2.51775 1.37504,0 1.57336,-0.41211 1.14616,-2.38165 -0.4481,-2.06588 -0.17804,-2.51105 2.03682,-3.35759 2.72036,-1.03975 3.86635,-3.04814 4.6979,-8.23328 0.33369,-2.08067 0.97456,-3.22444 1.80669,-3.22444 0.88492,0 1.23235,-0.74198 1.10721,-2.36457 -0.1003,-1.30052 -0.12475,-3.81558 -0.0543,-5.58901 0.11011,-2.77247 0.40718,-3.22443 2.11933,-3.22443 2.06781,0 4.80196,-2.37943 4.80196,-4.17897 0,-0.56875 0.57318,-1.2568 1.27374,-1.52902 0.77357,-0.30059 1.27373,-1.60116 1.27373,-3.31212 0,-2.07217 0.43889,-2.9334 1.65963,-3.25666 0.93501,-0.24759 1.92183,-1.51152 2.26013,-2.89479 0.33029,-1.35043 1.30298,-2.96092 2.16156,-3.57888 0.85858,-0.61796 1.56106,-1.87549 1.56106,-2.79451 0,-0.9494 0.57915,-1.67094 1.34121,-1.67094 1.0332,0 1.21896,-0.56354 0.80892,-2.45396 -0.43184,-1.99093 -0.13628,-2.71669 1.56644,-3.8464 1.15429,-0.76585 2.35648,-2.21482 2.67152,-3.21994 0.31505,-1.00512 1.29395,-2.55771 2.17534,-3.4502 0.88139,-0.89249 1.85196,-3.20212 2.15679,-5.13249 0.37643,-2.38371 1.22244,-3.95311 2.63685,-4.89154 1.14543,-0.75996 2.42041,-2.28145 2.83329,-3.38109 0.95523,-2.54407 3.53358,-2.58226 4.62485,-0.0685 0.46103,1.06196 1.91032,2.44765 3.22065,3.07931 1.31033,0.63166 2.71971,2.04678 3.13195,3.14471 0.41225,1.09794 1.20766,2.28297 1.76761,2.63338 0.67022,0.41944 0.19956,0.9759 -1.37754,1.62866 l -2.3956,0.99153 6.63125,4.90373 c 6.03586,4.46345 7.02194,4.90258 10.98289,4.89105 6.29659,-0.0184 8.1332,-1.29798 10.16322,-7.08107 0.95453,-2.71927 2.23461,-4.94413 2.84462,-4.94413 0.66622,0 1.10909,-1.03003 1.10909,-2.57954 0,-2.35512 0.2486,-2.57954 2.85752,-2.57954 3.04267,0 7.33233,-2.76933 7.33233,-4.73363 0,-0.64318 0.72625,-1.40283 1.6139,-1.6881 0.88764,-0.28527 1.85021,-1.47214 2.13906,-2.63749 0.72675,-2.93207 2.72175,-2.65667 3.33748,0.46074 0.45048,2.28073 0.85623,2.57955 3.50276,2.57955 2.39684,0 2.99327,0.33255 2.99327,1.66894 0,0.91792 0.33277,1.8772 0.73948,2.13173 0.40671,0.25452 0.97118,1.6359 1.25438,3.06972 0.32417,1.64129 1.30237,2.97025 2.64081,3.58777 1.16926,0.53945 2.37637,1.7927 2.68247,2.78499 0.30612,0.99231 1.26494,2.57804 2.13075,3.52387 0.8658,0.94583 2.51593,2.78376 3.66693,4.08428 3.5824,4.04771 8.75053,2.86526 7.56365,-1.73053 -0.34444,-1.3337 0.10854,-1.79135 2.19035,-2.21296 1.81118,-0.36679 2.91925,-1.27043 3.57533,-2.9157 1.81968,-4.56317 3.66665,-7.97318 4.3185,-7.97318 0.36084,0 0.65606,-1.35427 0.65606,-3.00947 v -3.00946 h 9.57911 9.5791 l 0.9528,2.55602 c 0.77936,2.09073 1.58611,2.65855 4.43195,3.11935 3.45742,0.55984 3.47914,0.58681 3.47914,4.32276 0,4.53584 2.19883,7.19881 5.94408,7.19881 2.36091,0 2.54746,0.22773 2.54746,3.10964 v 3.10964 l 5.63298,-0.3632 c 6.61848,-0.42674 8.3747,-1.94928 9.2771,-8.04275 0.53718,-3.62727 0.71431,-3.83226 3.31155,-3.83226 2.70894,0 5.5547,-2.12712 5.5547,-4.15198 0,-0.55391 0.9553,-1.0071 2.12288,-1.0071 1.86006,0 2.12289,-0.3726 2.12289,-3.00947 0,-2.43624 0.32348,-3.00946 1.69831,-3.00946 1.44204,0 1.6983,0.57322 1.6983,3.79898 0,5.24036 0.55485,6.28747 3.92917,7.41511 2.27548,0.76043 2.81935,1.33159 2.43515,2.55732 -0.27207,0.86801 -2.7e-4,1.89712 0.60399,2.28691 1.45832,0.9407 4.07071,6.04509 4.07071,7.95382 0,1.66871 2.53202,4.36283 4.10034,4.36283 0.57057,0 0.99458,1.28302 0.99458,3.00946 0,2.10185 0.38414,3.00947 1.27373,3.00947 0.70055,0 1.27373,0.53302 1.27373,1.18449 0,0.65147 0.57318,1.66617 1.27373,2.2549 0.70056,0.58873 1.27373,1.92291 1.27373,2.96487 0,1.04195 0.9553,2.80321 2.12289,3.91391 1.16759,1.11071 2.12289,2.47244 2.12289,3.02608 0,1.58087 2.91859,3.8527 4.9495,3.8527 1.54102,0 1.84374,0.49411 1.84374,3.00947 0,1.65521 0.31593,3.00946 0.70209,3.00946 0.38614,0 0.53383,1.1608 0.32819,2.57955 -0.20564,1.41874 -0.01,2.57954 0.43534,2.57954 0.44508,0 1.26082,1.00361 1.81276,2.23023 0.90014,2.00045 0.72265,2.55413 -1.72264,5.37405 l -2.72616,3.14382 2.49581,0.54315 c 1.37269,0.29873 4.05362,0.58893 5.95764,0.64488 3.34655,0.0984 3.44939,0.18765 3.08795,2.68128 -0.28363,1.95677 -0.0431,2.57954 0.99622,2.57954 0.79012,0 1.37011,0.7065 1.37011,1.66895 0,0.91792 0.38212,1.90809 0.84915,2.20036 0.46704,0.29229 0.84915,1.66046 0.84915,3.0404 0,1.69824 0.65732,2.94509 2.0342,3.85861 1.1188,0.74231 2.2368,2.1342 2.48444,3.0931 0.24765,0.95891 1.24285,1.95334 2.21158,2.20986 1.88858,0.50009 1.91473,0.57338 2.14093,6.00136 0.1679,4.02921 1.59986,6.30234 3.97015,6.30234 0.98359,0 1.59433,0.60771 1.59433,1.58643 0,0.87254 0.75677,2.27991 1.68171,3.12751 0.92493,0.8476 1.90455,2.93896 2.17694,4.64746 0.78264,4.90904 1.89498,6.94494 4.30043,7.87101 1.88005,0.72379 2.15991,1.2454 1.75854,3.27754 -0.48419,2.4514 1.97482,7.86502 3.5725,7.86502 0.7227,0 3.22001,3.54859 5.90199,8.3865 0.6244,1.12634 2.19394,2.6998 3.48786,3.49659 1.95884,1.20624 2.19519,1.70791 1.41218,2.99729 -0.74705,1.23018 -0.63487,1.72471 0.54562,2.40523 0.87599,0.50497 1.48602,1.87426 1.48602,3.33551 0,1.67656 0.52001,2.646 1.60663,2.99522 1.48243,0.47643 2.99247,3.31646 2.69788,5.07412 -0.0687,0.40997 0.30173,2.05443 0.82317,3.65435 0.70356,2.15861 1.44076,2.90894 2.85807,2.90894 1.62472,0 1.85597,0.37256 1.54839,2.49458 -0.27659,1.90829 0.0271,2.61948 1.29194,3.02599 1.67969,0.53984 3.65524,3.82501 4.17773,6.94722 0.15828,0.94584 1.24155,2.57174 2.40726,3.61311 1.16572,1.04137 2.11948,2.47044 2.11948,3.17567 0,0.70524 0.76417,1.82425 1.69816,2.48668 1.16647,0.82732 1.81619,2.47935 2.07512,5.27642 0.40677,4.39396 1.40131,6.1512 3.94382,6.96832 0.89082,0.28629 1.87467,1.54941 2.18636,2.80692 1.30013,5.24537 5.31412,12.76922 7.30162,13.68619 1.6829,0.77643 1.985,1.4295 1.66917,3.60842 l -0.38561,2.66043 H 255.44955 c -165.883634,0 -208.372986,-0.21887 -208.657397,-1.07482 z"
     id="path2" />
  <path
     style="fill:#ffffff;stroke-width:0.854484"
     d="m 198.84524,185.63955 0.34697,-3.00947 -5.8247,-0.0212 -5.8247,-0.0212 8.27335,-4.49303 c 4.55034,-2.47117 8.276,-4.78324 8.27925,-5.13793 0.004,-0.35468 -1.65757,-0.64488 -3.69071,-0.64488 -2.03315,0 -6.04541,-0.24859 -8.91613,-0.55242 -5.04188,-0.53361 -5.21949,-0.63562 -5.21949,-2.99793 0,-1.97733 0.56318,-2.68378 2.94183,-3.69015 1.98552,-0.84006 3.08965,-1.96184 3.39661,-3.45093 0.25014,-1.21346 0.66473,-3.22035 0.9213,-4.45978 0.25658,-1.23941 1.02081,-2.81478 1.69831,-3.5008 0.6775,-0.68602 1.23181,-2.00569 1.23181,-2.93259 0,-0.92689 0.66871,-1.92423 1.48601,-2.21633 2.82268,-1.00875 5.30722,-3.99236 5.30722,-6.37329 0,-4.37991 0.71425,-5.07954 5.18578,-5.07954 2.2852,0 4.15492,-0.21267 4.15492,-0.47262 0,-0.25994 -0.57894,-1.60628 -1.28655,-2.99185 -1.34235,-2.62852 -0.93541,-9.43323 0.56413,-9.43323 0.41735,0 1.1941,-0.96734 1.72608,-2.14962 0.53199,-1.1823 1.41988,-2.14963 1.97308,-2.14963 1.87598,0 3.58576,-2.99368 4.12881,-7.22923 0.35948,-2.80378 1.11022,-4.62346 2.23724,-5.42281 0.93292,-0.66167 1.69622,-1.68872 1.69622,-2.28234 0,-0.59363 1.14635,-1.93753 2.54746,-2.98646 1.6114,-1.20636 2.54746,-2.672684 2.54746,-3.990554 0,-1.14588 0.44346,-3.068954 0.98546,-4.273497 0.95106,-2.113637 1.26966,-2.193628 9.12841,-2.29181 4.47862,-0.05596 9.28931,-0.371792 10.69041,-0.701864 2.47503,-0.583065 2.36513,-0.693163 -3.86477,-3.871603 l -6.41224,-3.271474 0.17194,-3.55033 c 0.0946,-1.952682 0.20972,-4.033994 0.25588,-4.625139 0.0642,-0.822232 3.92526,-1.058858 16.43014,-1.006928 8.99043,0.03734 15.87582,0.2606 15.30088,0.496143 -0.77371,0.316981 -0.60823,1.295838 0.63687,3.767176 0.92521,1.836405 1.6822,3.544491 1.6822,3.795746 0,0.251254 -2.16401,1.693505 -4.80893,3.204999 -5.69831,3.256423 -5.37222,3.537606 5.84775,5.042554 l 7.40748,0.993572 0.49613,3.138869 c 0.97073,6.14162 1.27132,6.89998 2.94862,7.43903 0.93347,0.30001 2.13473,1.38986 2.66945,2.42189 0.53471,1.03203 1.48961,2.18585 2.12198,2.56404 0.63237,0.37818 1.14977,1.25403 1.14977,1.94632 0,0.69229 0.34101,1.93059 0.75779,2.75178 0.41678,0.82118 1.17632,2.5649 1.68787,3.87492 0.51154,1.31 1.89008,2.75142 3.0634,3.20314 1.47821,0.56909 2.13333,1.46909 2.13333,2.93079 0,1.16021 0.51898,2.63499 1.15328,3.27728 0.6343,0.64229 1.65732,2.70132 2.27337,4.57562 0.61605,1.87429 2.00767,4.25985 3.0925,5.30123 1.08482,1.04138 1.97239,2.42787 1.97239,3.08111 0,0.65325 0.25414,1.44505 0.56475,1.75957 0.31061,0.31452 0.67109,1.58185 0.80106,2.8163 0.12998,1.23444 0.87654,2.96078 1.65902,3.83631 1.04884,1.17355 1.27451,2.39171 0.85876,4.63571 l -0.56393,3.04385 h 3.31886 c 3.28856,0 3.33259,0.0443 4.82483,4.84819 1.20665,3.88455 1.98926,5.0329 3.93744,5.77752 1.68638,0.64456 2.43146,1.52391 2.43146,2.86966 0,1.06717 0.74444,3.17986 1.6543,4.69486 1.83656,3.05803 1.60913,4.16581 -0.85527,4.16581 -1.13927,0 -1.6522,0.59736 -1.66119,1.93466 -0.0193,2.87542 -0.90226,3.7527 -4.65735,4.62763 -2.22343,0.51805 -3.68613,1.45186 -4.23484,2.70356 -0.62759,1.43167 -1.55932,1.91217 -3.7079,1.91217 -2.59629,0 -2.83135,-0.20298 -2.46743,-2.13067 0.27434,-1.45323 -0.0317,-2.27269 -0.96245,-2.57734 -0.75059,-0.24565 -2.00776,-1.59455 -2.79372,-2.99754 -0.78598,-1.40299 -2.318,-2.77682 -3.4045,-3.05294 -1.08649,-0.27613 -2.60682,-1.61602 -3.37851,-2.97752 -1.66822,-2.94332 -0.97573,-3.46094 4.63012,-3.46094 1.94332,0 3.13859,-0.31821 2.69031,-0.71621 -0.44369,-0.39392 -5.2981,-2.7155 -10.78758,-5.15909 -14.55266,-6.47795 -18.50228,-5.951 -19.86889,2.65087 -0.42483,2.67405 -0.8561,3.22443 -2.52663,3.22443 -2.2659,0 -5.41097,2.75948 -5.41097,4.74759 0,0.71952 -0.96446,1.75318 -2.14325,2.29703 -1.17879,0.54386 -2.36657,1.88982 -2.63952,2.99103 -0.45486,1.83513 -0.94918,2.00221 -5.92371,2.00221 -4.13565,0 -5.42746,-0.29213 -5.42746,-1.22736 0,-1.67786 -4.06879,-4.79034 -6.27088,-4.797 -1.75476,-0.005 -4.76812,-4.02677 -4.76812,-6.36323 0,-1.56917 -3.684,-4.80936 -5.46809,-4.80936 -1.24889,0 -1.4436,-0.4751 -1.03744,-2.53148 0.40018,-2.02604 0.16325,-2.6397 -1.18666,-3.07354 -3.49006,-1.12164 -8.29165,1.13721 -9.39239,4.41856 -0.1777,0.52973 -3.72948,3.79744 -7.89285,7.26157 -4.16337,3.46411 -7.16885,6.43372 -6.67883,6.59912 1.4347,0.48426 -0.81272,4.5083 -2.52221,4.51602 -1.13094,0.005 -1.48602,0.7258 -1.48602,3.01617 0,2.9113 -0.10523,3.00947 -3.22611,3.00947 -3.18696,0 -3.22189,-0.0365 -2.87913,-3.00947 z"
     id="path3" />
  <path
     style="fill:#ffffff;stroke-width:0.213621"
     d="m 251.86558,70.184711 c -2.20567,-1.699083 -4.14641,-3.227041 -4.31273,-3.395464 -0.2617,-0.264987 -0.23102,-0.402977 0.22784,-1.024773 0.81909,-1.109945 1.07308,-2.185998 0.9503,-4.026143 -0.0888,-1.330633 -0.0377,-1.757075 0.27297,-2.281419 0.21018,-0.354687 0.48733,-1.045589 0.61588,-1.535339 l 0.23374,-0.890454 2.48324,-0.07982 c 1.36578,-0.0439 4.12658,-0.04353 6.1351,8.23e-4 l 3.65185,0.08065 0.22998,0.924852 c 0.12649,0.508668 0.56504,1.36932 0.97455,1.91256 0.44638,0.592162 0.74456,1.231539 0.74456,1.59657 0,0.925931 0.54229,2.553481 1.17173,3.516594 0.31021,0.474661 0.48394,0.936985 0.38608,1.027384 -0.0979,0.0904 -1.84971,1.401604 -3.89299,2.913785 -2.04328,1.512181 -4.19807,3.109425 -4.78841,3.549432 l -1.07337,0.800011 z"
     id="path4" />
  <path
     style="fill:#ffffff;stroke-width:0.899779"
     d="m 249.73185,56.916986 5.96888,-12.327965 6.52051,12.45349 -12.39666,0.297301 z"
     id="path5" />
</svg>
